<svg width="67" height="70" viewBox="0 0 67 70" fill="none" xmlns="http://www.w3.org/2000/svg">
<circle cx="33.5" cy="36.5" r="33.5" fill="#0C0C0C"/>
<path d="M27.328 49.152C26.3893 49.4507 25.5147 49.4293 24.704 49.088C23.936 48.7467 23.488 48.256 23.36 47.616C23.232 46.976 23.4667 46.3147 24.064 45.632C24.576 45.0773 25.3227 44.736 26.304 44.608C26.816 44.5227 28.5653 44.2667 31.552 43.84C34.5387 43.3707 36.8427 42.944 38.464 42.56C39.1467 42.3893 40.128 42.048 41.408 41.536C42.688 40.9813 43.712 40.6827 44.48 40.64C45.1627 40.5547 45.76 40.7893 46.272 41.344C46.784 41.856 47.0613 42.4107 47.104 43.008C47.104 43.3493 46.9547 43.6693 46.656 43.968C46.3573 44.224 45.9093 44.416 45.312 44.544C39.3387 45.6533 33.344 47.1893 27.328 49.152ZM45.056 33.408C45.7813 33.3653 46.4213 33.5147 46.976 33.856C47.5307 34.1973 47.808 34.6453 47.808 35.2C47.808 36.1387 47.0827 36.736 45.632 36.992C45.2053 37.0347 44.5227 37.1413 43.584 37.312C42.6453 37.44 42.048 37.5253 41.792 37.568C41.536 37.6107 41.0667 37.696 40.384 37.824C39.744 37.952 39.1893 38.1013 38.72 38.272C38.2507 38.4 37.632 38.5707 36.864 38.784C36.096 38.9973 35.2427 39.2533 34.304 39.552C31.8293 40.32 30.1653 40.9813 29.312 41.536C27.4773 42.7307 26.56 44.4587 26.56 46.72C26.56 48.8107 26.432 50.2827 26.176 51.136C24.8107 50.9227 23.9573 50.112 23.616 48.704C23.1893 46.912 22.6987 45.696 22.144 45.056C22.0587 44.9707 21.888 44.8213 21.632 44.608C21.4187 44.3947 21.2907 44.2667 21.248 44.224C21.2053 44.1813 21.0987 44.0747 20.928 43.904C20.8 43.7333 20.736 43.6267 20.736 43.584C20.736 43.4987 20.6933 43.392 20.608 43.264C20.5227 43.136 20.5013 43.0507 20.544 43.008C20.5867 42.9227 20.608 42.816 20.608 42.688C20.6507 42.56 20.6933 42.4533 20.736 42.368C20.8213 42.24 20.9067 42.112 20.992 41.984C21.12 41.8133 21.2693 41.6427 21.44 41.472C21.5253 41.344 21.6747 41.1733 21.888 40.96C22.1013 40.7467 22.2293 40.6187 22.272 40.576C22.3147 40.4907 22.4 40.384 22.528 40.256C22.656 40.0853 22.72 39.936 22.72 39.808C22.7627 39.68 22.8267 39.5093 22.912 39.296C22.9973 39.0827 23.0827 38.8267 23.168 38.528C23.6373 36.5227 23.2107 35.4987 21.888 35.456C21.0347 35.4133 20.416 35.008 20.032 34.24C19.648 33.472 19.7973 32.832 20.48 32.32C21.0773 31.8933 21.5467 31.5093 21.888 31.168C22.2293 30.8267 22.5493 30.336 22.848 29.696C23.1893 29.056 23.3813 28.3307 23.424 27.52C23.552 25.6427 24.128 24.4267 25.152 23.872C25.2373 23.9573 25.344 24.064 25.472 24.192C25.6427 24.2773 25.7493 24.3627 25.792 24.448C25.8773 24.5333 25.984 24.64 26.112 24.768C26.24 24.8533 26.3253 24.96 26.368 25.088C26.4533 25.216 26.5387 25.3867 26.624 25.6C26.7093 25.8133 26.7947 26.048 26.88 26.304L27.712 28.864C28.224 28.6933 28.928 28.416 29.824 28.032C30.7627 27.6053 31.5733 27.2213 32.256 26.88C32.9813 26.5387 33.8347 26.1973 34.816 25.856C35.84 25.472 36.7147 25.1947 37.44 25.024C38.208 24.8533 39.0613 24.7467 40 24.704C40.9813 24.6613 41.8133 24.7893 42.496 25.088C43.008 25.2587 43.456 25.6853 43.84 26.368C42.432 27.264 39.9573 28.3093 36.416 29.504C32.9173 30.656 30.5493 31.5307 29.312 32.128C26.9227 33.28 26.048 35.2427 26.688 38.016C28.6507 37.76 31.6587 36.9707 35.712 35.648C39.7653 34.3253 42.88 33.5787 45.056 33.408Z" fill="white"/>
</svg>
