<svg width="50" height="50" viewBox="0 0 50 50" fill="none" xmlns="http://www.w3.org/2000/svg">
<path d="M27.6434 7.64392C28.2685 7.01902 29.1162 6.66797 30.0001 6.66797C30.884 6.66797 31.7317 7.01902 32.3567 7.64392L47.3567 22.6439C47.9817 23.269 48.3327 24.1167 48.3327 25.0006C48.3327 25.8845 47.9817 26.7322 47.3567 27.3573L32.3567 42.3573C31.7281 42.9644 30.8861 43.3004 30.0121 43.2928C29.1381 43.2852 28.302 42.9347 27.684 42.3167C27.066 41.6986 26.7154 40.8626 26.7078 39.9886C26.7002 39.1146 27.0362 38.2726 27.6434 37.6439L36.6667 28.3339H5.00008C4.11603 28.3339 3.26818 27.9827 2.64306 27.3576C2.01794 26.7325 1.66675 25.8846 1.66675 25.0006C1.66675 24.1165 2.01794 23.2687 2.64306 22.6436C3.26818 22.0184 4.11603 21.6673 5.00008 21.6673H36.6667L27.6434 12.3573C27.0185 11.7322 26.6675 10.8845 26.6675 10.0006C26.6675 9.11671 27.0185 8.26902 27.6434 7.64392Z" fill="white"/>
</svg>
